PathFileType	4	(X/Y/Z)	C:/Users/beibeiliu/ov580/test_trc\sequence.7_training_dense_right.trc
DataRate	CameraRate	NumFrames	NumMarkers	Units	OrigDataRate	OrigDataStartFrame	OrigNumFrames
120	120	8	19	mm	120	156	310
Frame#	Time	ThumbCMC			ThumbMCP			ThumbIP			ThumbTip			IndexMCP			IndexPIP			IndexTip			MiddleMCP			MiddlePIP			MiddleTip			RingMCP			RingPIP			RingTip			PinkyMCP			PinkyPIP			PinkyTip			BackHand1			BackHand2			BackHand3	
		X0	Y0	Z0	X1	Y1	Z1	X2	Y2	Z2	X3	Y3	Z3	X4	Y4	Z4	X5	Y5	Z5	X6	Y6	Z6	X7	Y7	Z7	X8	Y8	Z8	X9	Y9	Z9	X10	Y10	Z10	X11	Y11	Z11	X12	Y12	Z12	X13	Y13	Z13	X14	Y14	Z14	X15	Y15	Z15	X16	Y16	Z16	X17	Y17	Z17	X18	Y18	Z18	
155	1.29167	175.318	-26.023	36.5128	154.347	-32.6479	15.4499	143.384	-35.4598	-2.99837	138.428	-39.4234	-18.7042	182.951	-14.9203	-28.8643	181.303	-18.3831	-54.2754	176.036	-23.743	-78.5112	209.491	-20.42	-37.474	206.793	-21.8057	-62.142	207.433	-26.2601	-85.2649	223.176	-26.8827	-31.6015	230.39	-31.365	-49.6692	230.859	-32.0961	-72.6883	243.394	-39.3139	-15.7692	246.175	-39.4208	-28.7606	258.728	-37.3034	-48.2223	223.586	-20.3455	14.6268	224.479	-18.1002	37.374	199.135	-10.9719	27.0106	
156	1.3	174.669	-25.1052	33.3426	159.646	-34.8145	17.6973	146.24	-36.1016	-4.79934	134.239	-39.0415	-19.643	180.761	-15.0886	-32.379	177.598	-16.8333	-53.1865	174.942	-23.226	-76.4372	208.221	-19.464	-37.9348	206.826	-22.4178	-58.5693	209.604	-28.2883	-87.5585	223.61	-27.1778	-30.0378	230.638	-30.2976	-52.8041	230.478	-32.1564	-72.3963	240.732	-39.2893	-12.4565	249.52	-41.1212	-29.7644	259.934	-35.852	-46.9533	223.143	-19.0161	14.9482	223.104	-15.1504	37.7542	202.335	-9.03456	23.4926	
157	1.30833	174.071	-25.9683	36.7039	160.158	-33.5771	16.6241	145.318	-35.5546	-4.18796	135.443	-39.3737	-24.3676	186.791	-17.2323	-30.4475	181.689	-19.1258	-55.0255	176.464	-25.2475	-77.364	211.058	-20.8297	-35.0859	209.99	-23.4229	-61.3987	212.335	-29.1239	-85.7626	229.056	-29.1221	-27.8244	227.42	-30.1805	-49.379	231.702	-33.3659	-70.8871	240.679	-38.2898	-16.5317	247.781	-40.1384	-31.7345	262.83	-36.6073	-46.4699	224.508	-21.4637	15.9868	222.543	-17.3792	40.6707	202.864	-11.5576	27.6005	
158	1.31667	172.667	-24.6738	34.0098	160.516	-34.0842	12.942	146.312	-36.4702	-4.90828	138.594	-40.677	-19.8448	182.008	-16.2377	-30.9257	179.356	-20.4314	-55.4697	174.99	-24.6663	-75.0861	211.196	-20.9337	-38.8104	208.269	-22.8615	-60.372	212.469	-29.5617	-83.2153	229.807	-30.2452	-29.2473	228.788	-31.3633	-50.2702	232.971	-34.6132	-69.8675	243.213	-39.414	-12.9198	248.863	-40.2929	-30.6365	256.976	-38.1678	-45.1926	227.625	-22.2097	16.7863	226.164	-18.2721	40.4976	198.575	-10.3388	25.3773	
159	1.325	176.237	-26.5831	36.7424	158.246	-33.8357	16.1917	151.358	-36.7162	-5.59126	140.272	-39.8221	-22.3189	185.614	-16.8418	-29.6784	181.093	-19.9174	-53.2519	177.612	-24.724	-76.6345	209.086	-20.5768	-33.663	208.854	-23.37	-63.189	212.099	-30.0364	-87.3607	229.881	-30.1017	-25.5354	229.194	-30.6385	-49.7419	234.335	-33.4452	-73.4441	244.713	-40.1376	-11.6914	252.957	-42.2127	-31.5076	260.648	-40.4906	-43.7458	226.015	-22.2562	13.2983	227.979	-18.0368	39.7083	200.783	-9.83322	26.8199	
160	1.33333	176.519	-25.0255	33.904	158.892	-32.6752	17.0623	149.278	-35.025	-2.35031	139.273	-38.4051	-20.1654	183.131	-15.5903	-31.9854	182.096	-17.8382	-50.5229	179.513	-25.1135	-77.9604	212.675	-20.9012	-37.8806	213.134	-24.5463	-60.13	212.432	-29.2693	-84.8235	231.443	-30.3989	-28.8616	229.73	-30.2749	-49.1518	233.248	-33.8289	-70.6487	243.75	-38.944	-12.5782	249.81	-41.3506	-29.9192	259.761	-36.5424	-46.6321	229.075	-20.4427	13.8595	229.671	-17.1743	41.7422	205.374	-10.48	27.4609	
161	1.34167	180.144	-24.7991	33.2545	163.1	-31.6733	15.7786	150.168	-34.2043	-4.31847	137.914	-37.208	-18.4174	190.005	-15.5153	-30.2067	183.848	-17.8931	-54.0053	180.797	-22.6441	-74.1938	212.413	-20.8887	-34.3628	212.706	-24.5049	-59.2064	215.627	-29.5326	-81.8915	230.859	-29.4154	-30.0202	236.29	-32.8125	-46.8017	236.587	-34.4188	-71.9284	247.618	-41.0541	-13.4711	254.476	-43.3494	-25.0399	260.481	-38.6725	-41.0817	227.511	-20.3584	19.0364	226.678	-17.8933	41.9288	204.159	-8.10133	25.8318	
162	1.35	180.894	-24.4651	34.4802	160.763	-31.5595	14.8073	151.832	-34.8238	-2.9494	139.623	-36.5926	-19.3614	186.978	-15.4653	-30.9501	182.539	-18.1066	-54.8688	182.802	-24.1113	-74.2641	214.645	-22.2622	-38.1822	215.981	-25.789	-60.1166	216.945	-29.6852	-84.9506	233.932	-30.6575	-26.8455	232.757	-32.1147	-49.0767	237.991	-35.65	-68.6812	248.293	-41.2848	-14.2437	252.806	-42.8446	-29.1888	265.849	-41.2473	-44.183	230.007	-22.7539	18.7234	232.527	-20.4797	43.5477	209.191	-10.8934	27.5942	
